<svg width="50" height="50" viewBox="0 0 50 50" fill="none" xmlns="http://www.w3.org/2000/svg">
<path fill-rule="evenodd" clip-rule="evenodd" d="M10 0C4.47715 0 0 4.47715 0 10V40C0 45.5228 4.47715 50 10 50H40C45.5228 50 50 45.5228 50 40V10C50 4.47715 45.5228 0 40 0H10ZM27.25 18.3438V20.3125C23.6641 19.5391 20.4297 17.7109 18.0391 15.0391C18.8125 12.7188 20.0078 10.6797 21.4844 8.92188C22.0469 8.21875 23.2422 8.57031 23.3828 9.48438C23.875 12.7188 25.2109 15.7422 27.25 18.3438ZM29.5 18.6953C29.5 15.5312 31.9609 13 35.125 13H43L40.75 17.5V28.8203C40.75 35.0078 35.6875 40 29.5 40H24.0859L19.4453 44.0078C19.0234 44.3594 18.4609 44.5703 17.8984 44.5C11.4297 44.2891 8.40625 41.0547 7.14062 39.1562C6.71875 38.5234 7.07031 37.6094 7.84375 37.4688L17.9688 34.9375C17.0547 34.2344 16.1406 33.5312 15.2266 32.6172C11.6406 29.1719 9.25 24.5312 9.25 19.5391C9.25 16.6562 9.88281 13.8438 11.0781 11.3828C11.4297 10.5391 12.6953 10.6094 13.1172 11.4531C15.9297 17.8516 22.1172 22.4219 29.5 22.8438V18.6953ZM34 18.6953C34 19.2578 34.4922 19.8203 35.125 19.8203C35.6875 19.8203 36.25 19.2578 36.25 18.6953C36.25 18.0625 35.6875 17.5703 35.125 17.5703C34.4922 17.5703 34 18.0625 34 18.6953Z" fill="#1665AA"/>
</svg>
