<svg width="280" height="101" viewBox="0 0 280 101" fill="none" xmlns="http://www.w3.org/2000/svg">
<rect x="10" y="10" width="80" height="80" rx="10" fill="#1665AA"/>
<path d="M52.3203 43.2422C48.6641 42.4922 45.5938 40.7344 43.1094 37.9688C43.9062 35.6719 45.0547 33.6562 46.5547 31.9219C46.8828 31.5469 47.2578 31.4297 47.6797 31.5703C48.1484 31.7109 48.4297 32.0156 48.5234 32.4844C48.9922 35.7188 50.2578 38.6484 52.3203 41.2734V43.2422ZM60.1953 36H68.0703L65.8203 40.5V51.75C65.8203 54.8438 64.7188 57.4922 62.5156 59.6953C60.3125 61.8984 57.6641 63 54.5703 63H49.1562L44.5859 66.9375C44.1172 67.3125 43.6016 67.5 43.0391 67.5C38.0234 67.3125 34.4375 65.5312 32.2812 62.1562C32.0469 61.8281 32 61.4766 32.1406 61.1016C32.2812 60.7266 32.5391 60.4922 32.9141 60.3984L43.0391 57.8672C42.0078 57.1172 41.0938 56.3438 40.2969 55.5469C36.3125 51.75 34.3203 47.4141 34.3203 42.5391C34.3203 39.6797 34.9297 36.9609 36.1484 34.3828C36.3359 33.9609 36.6641 33.75 37.1328 33.75C37.6484 33.75 38 33.9844 38.1875 34.4531C39.5938 37.6875 41.75 40.3359 44.6562 42.3984C47.6094 44.4609 50.9141 45.6094 54.5703 45.8438V41.625C54.5703 40.0781 55.1094 38.7656 56.1875 37.6875C57.3125 36.5625 58.6484 36 60.1953 36ZM59.3516 42.4688C59.5859 42.6562 59.8672 42.75 60.1953 42.75C60.5234 42.75 60.7812 42.6562 60.9688 42.4688C61.2031 42.2344 61.3203 41.9531 61.3203 41.625C61.3203 41.2969 61.2031 41.0391 60.9688 40.8516C60.7812 40.6172 60.5234 40.5 60.1953 40.5C59.8672 40.5 59.5859 40.6172 59.3516 40.8516C59.1641 41.0391 59.0703 41.2969 59.0703 41.625C59.0703 41.9531 59.1641 42.2344 59.3516 42.4688Z" fill="white"/>
<path d="M105.75 19.2266L109.717 31.5923L113.672 19.2266H119.312V37H115.015V32.8496L115.43 24.3535L111.133 37H108.301L103.992 24.3413L104.407 32.8496V37H100.123V19.2266H105.75ZM139.098 28.4795C139.098 30.2129 138.776 31.7469 138.133 33.0815C137.49 34.4162 136.575 35.4456 135.387 36.1699C134.207 36.8861 132.86 37.2441 131.346 37.2441C129.833 37.2441 128.49 36.8983 127.318 36.2065C126.146 35.5067 125.23 34.5098 124.571 33.2158C123.92 31.9219 123.578 30.4367 123.546 28.7603V27.7593C123.546 26.0177 123.863 24.4837 124.498 23.1572C125.141 21.8226 126.056 20.7931 127.245 20.0688C128.441 19.3446 129.8 18.9824 131.322 18.9824C132.827 18.9824 134.17 19.3405 135.35 20.0566C136.53 20.7728 137.446 21.7941 138.097 23.1206C138.756 24.439 139.09 25.9526 139.098 27.6616V28.4795ZM134.74 27.7349C134.74 25.9689 134.443 24.6302 133.849 23.7188C133.263 22.7992 132.42 22.3394 131.322 22.3394C129.173 22.3394 128.038 23.9507 127.916 27.1733L127.904 28.4795C127.904 30.221 128.193 31.5597 128.771 32.4956C129.348 33.4315 130.207 33.8994 131.346 33.8994C132.429 33.8994 133.263 33.4396 133.849 32.52C134.435 31.6004 134.732 30.278 134.74 28.5527V27.7349ZM150.961 37V30.7622H148.495L145.492 37H140.841L144.491 29.3096C142.904 28.276 142.111 26.7583 142.111 24.7563C142.111 22.9985 142.689 21.6395 143.844 20.6792C145 19.7108 146.664 19.2266 148.837 19.2266H155.258V37H150.961ZM146.383 25.1348C146.383 26.0381 146.566 26.6932 146.933 27.1001C147.299 27.507 147.913 27.7104 148.776 27.7104H150.961V22.5347H148.8C147.946 22.5347 147.327 22.7585 146.945 23.2061C146.57 23.6455 146.383 24.2884 146.383 25.1348ZM172.039 19.2266V33.7041H176.458V19.2266H180.742V33.7041H185.112V19.2266H189.373V37H167.754V19.2266H172.039ZM200.296 29.9688H198.27V37H193.985V19.2266H198.27V26.0991H199.917L203.335 19.2266H208.523L203.641 27.4297L209.134 37H204.068L200.296 29.9688ZM226.856 28.4795C226.856 30.2129 226.535 31.7469 225.892 33.0815C225.249 34.4162 224.334 35.4456 223.146 36.1699C221.965 36.8861 220.619 37.2441 219.105 37.2441C217.591 37.2441 216.249 36.8983 215.077 36.2065C213.905 35.5067 212.989 34.5098 212.33 33.2158C211.679 31.9219 211.337 30.4367 211.305 28.7603V27.7593C211.305 26.0177 211.622 24.4837 212.257 23.1572C212.9 21.8226 213.815 20.7931 215.003 20.0688C216.2 19.3446 217.559 18.9824 219.081 18.9824C220.586 18.9824 221.929 19.3405 223.109 20.0566C224.289 20.7728 225.204 21.7941 225.855 23.1206C226.515 24.439 226.848 25.9526 226.856 27.6616V28.4795ZM222.499 27.7349C222.499 25.9689 222.201 24.6302 221.607 23.7188C221.021 22.7992 220.179 22.3394 219.081 22.3394C216.932 22.3394 215.797 23.9507 215.675 27.1733L215.663 28.4795C215.663 30.221 215.951 31.5597 216.529 32.4956C217.107 33.4315 217.966 33.8994 219.105 33.8994C220.187 33.8994 221.021 33.4396 221.607 32.52C222.193 31.6004 222.49 30.278 222.499 28.5527V27.7349ZM245.629 19.2266V37H241.344V22.5347H237.353L237.06 28.5039C236.938 30.5628 236.653 32.2067 236.205 33.4355C235.757 34.6644 235.119 35.5636 234.289 36.1333C233.467 36.6948 232.344 36.9837 230.919 37H229.772V33.7041L230.37 33.6431C231.225 33.521 231.843 33.0002 232.226 32.0806C232.608 31.1528 232.856 29.5944 232.97 27.4053L233.275 19.2266H245.629ZM260.617 33.6797H254.746L253.72 37H249.143L255.661 19.2266H259.689L266.257 37H261.655L260.617 33.6797ZM255.771 30.3716H259.592L257.675 24.207L255.771 30.3716Z" fill="#1665AA"/>
<path d="M127.742 87H119.515V59.2266H107.257V87H99.0309V52.875H127.742V87ZM165.613 70.6406C165.613 73.9688 164.996 76.9141 163.762 79.4766C162.527 82.0391 160.769 84.0156 158.488 85.4062C156.222 86.7812 153.637 87.4688 150.73 87.4688C147.824 87.4688 145.246 86.8047 142.996 85.4766C140.746 84.1328 138.988 82.2188 137.722 79.7344C136.472 77.25 135.816 74.3984 135.754 71.1797V69.2578C135.754 65.9141 136.363 62.9688 137.582 60.4219C138.816 57.8594 140.574 55.8828 142.855 54.4922C145.152 53.1016 147.762 52.4062 150.683 52.4062C153.574 52.4062 156.152 53.0938 158.418 54.4688C160.683 55.8438 162.441 57.8047 163.691 60.3516C164.957 62.8828 165.597 65.7891 165.613 69.0703V70.6406ZM157.246 69.2109C157.246 65.8203 156.676 63.25 155.535 61.5C154.41 59.7344 152.793 58.8516 150.683 58.8516C146.558 58.8516 144.379 61.9453 144.144 68.1328L144.121 70.6406C144.121 73.9844 144.676 76.5547 145.785 78.3516C146.894 80.1484 148.543 81.0469 150.73 81.0469C152.808 81.0469 154.41 80.1641 155.535 78.3984C156.66 76.6328 157.23 74.0938 157.246 70.7812V69.2109ZM201.656 52.875V87H193.43V59.2266H185.766L185.203 70.6875C184.969 74.6406 184.422 77.7969 183.562 80.1562C182.703 82.5156 181.477 84.2422 179.883 85.3359C178.305 86.4141 176.148 86.9688 173.414 87H171.211V80.6719L172.359 80.5547C174 80.3203 175.188 79.3203 175.922 77.5547C176.656 75.7734 177.133 72.7812 177.352 68.5781L177.938 52.875H201.656ZM231.793 72.5391H218.856V80.6719H234.137V87H210.629V52.875H234.184V59.2266H218.856V66.4219H231.793V72.5391ZM213.465 47.7422C213.465 46.8828 213.801 46.1484 214.473 45.5391C215.16 44.9297 216.004 44.625 217.004 44.625C218.004 44.625 218.84 44.9297 219.512 45.5391C220.199 46.1484 220.543 46.8828 220.543 47.7422C220.543 48.6016 220.199 49.3359 219.512 49.9453C218.84 50.5547 218.004 50.8594 217.004 50.8594C216.004 50.8594 215.16 50.5547 214.473 49.9453C213.801 49.3359 213.465 48.6016 213.465 47.7422ZM225.629 47.7422C225.629 46.8828 225.965 46.1484 226.637 45.5391C227.324 44.9297 228.168 44.625 229.168 44.625C230.168 44.625 231.004 44.9297 231.676 45.5391C232.363 46.1484 232.707 46.8828 232.707 47.7422C232.707 48.6016 232.363 49.3359 231.676 49.9453C231.004 50.5547 230.168 50.8594 229.168 50.8594C228.168 50.8594 227.324 50.5547 226.637 49.9453C225.965 49.3359 225.629 48.6016 225.629 47.7422ZM268.586 59.2266H258.344V87H250.117V59.2266H240.063V52.875H268.586V59.2266Z" fill="#1665AA"/>
</svg>
